<svg xmlns="http://www.w3.org/2000/svg" id="Layer_1" data-name="Layer 1" viewBox="0 0 292.59 158.17"><defs><style>.cls-1{fill:#f6f6f6;}</style></defs><rect class="cls-1" y="74.3" width="292.59" height="8"/><path class="cls-1" d="M40.81,28.56l13.7,40.26h.16l13-40.26H85.75V87.1h-12V45.61h-.17L59.18,87.1H49.26L34.91,46h-.16V87.1H22.69V28.56Z" transform="translate(-11.26 -28.56)"/><path class="cls-1" d="M143.81,28.56V39.38H112.89V51.93h28.38v10H112.89V76.28h31.57V87.1H100V28.56Z" transform="translate(-11.26 -28.56)"/><path class="cls-1" d="M181.36,28.56a30.22,30.22,0,0,1,10.54,1.8,23,23,0,0,1,8.45,5.41,25.12,25.12,0,0,1,5.57,9,36.5,36.5,0,0,1,2,12.71,40.67,40.67,0,0,1-1.64,11.81,26,26,0,0,1-5,9.35,23.36,23.36,0,0,1-8.28,6.19,28.12,28.12,0,0,1-11.69,2.25H156.11V28.56Zm-.9,47.72a16.55,16.55,0,0,0,5.41-.9,11.89,11.89,0,0,0,4.68-3,15.1,15.1,0,0,0,3.28-5.45,24,24,0,0,0,1.23-8.2,33.72,33.72,0,0,0-.87-8,15.87,15.87,0,0,0-2.82-6.11,12.55,12.55,0,0,0-5.21-3.9,20.86,20.86,0,0,0-8-1.35H169v36.9Z" transform="translate(-11.26 -28.56)"/><path class="cls-1" d="M232.69,28.56V87.1H219.82V28.56Z" transform="translate(-11.26 -28.56)"/><path class="cls-1" d="M276.15,28.56l21.9,58.54H284.68l-4.43-13H258.36l-4.59,13h-13L263,28.56Zm.74,35.91L269.51,43h-.16l-7.63,21.48Z" transform="translate(-11.26 -28.56)"/><path class="cls-1" d="M35.37,126.87v24.27l22.88-24.27H74.32L51.45,150l25.09,35.43H60.38L42.75,159.1l-7.38,7.46v18.86H22.5V126.87Z" transform="translate(-11.26 -28.56)"/><path class="cls-1" d="M124.1,181q-6.64,5.78-18.37,5.78-11.9,0-18.41-5.74T80.8,163.28V126.87H93.68v36.41a25.91,25.91,0,0,0,.41,4.67,9.08,9.08,0,0,0,5.37,6.93,14.74,14.74,0,0,0,6.27,1.11q6.88,0,9.51-3.08t2.62-9.63V126.87h12.88v36.41Q130.74,175.18,124.1,181Z" transform="translate(-11.26 -28.56)"/><path class="cls-1" d="M153.94,126.87l24.44,39.28h.16V126.87H190.6v58.55H177.73l-24.36-39.2h-.16v39.2H141.15V126.87Z" transform="translate(-11.26 -28.56)"/><path class="cls-1" d="M211.1,171a9.34,9.34,0,0,0,2.83,3.32,12.09,12.09,0,0,0,4.14,1.88,19.51,19.51,0,0,0,4.92.62,25.82,25.82,0,0,0,3.69-.29,12.74,12.74,0,0,0,3.69-1.11,8,8,0,0,0,2.87-2.25,5.69,5.69,0,0,0,1.15-3.65,5.12,5.12,0,0,0-1.52-3.85,11.84,11.84,0,0,0-4-2.46,40.41,40.41,0,0,0-5.57-1.73c-2.08-.49-4.18-1-6.32-1.64a55.1,55.1,0,0,1-6.39-2,22.11,22.11,0,0,1-5.58-3.08,14.55,14.55,0,0,1-4-4.71,14.35,14.35,0,0,1-1.51-6.85,15.35,15.35,0,0,1,1.92-7.83,17.51,17.51,0,0,1,5-5.54,22,22,0,0,1,7.05-3.28,30,30,0,0,1,7.87-1.06,37.5,37.5,0,0,1,8.82,1,22,22,0,0,1,7.5,3.32,17,17,0,0,1,5.21,5.86,18.08,18.08,0,0,1,1.92,8.66H232.42a10.37,10.37,0,0,0-1.11-4.35,7.27,7.27,0,0,0-2.5-2.71,10.65,10.65,0,0,0-3.57-1.39,22.18,22.18,0,0,0-4.38-.41,15,15,0,0,0-3.12.33,8.31,8.31,0,0,0-2.83,1.15,7,7,0,0,0-2.09,2,5.47,5.47,0,0,0-.82,3.11,5.24,5.24,0,0,0,.66,2.79,5.77,5.77,0,0,0,2.58,2,32.85,32.85,0,0,0,5.33,1.8c2.27.6,5.23,1.37,8.9,2.3,1.09.22,2.61.61,4.55,1.19a21.84,21.84,0,0,1,5.78,2.74,17.45,17.45,0,0,1,5,5.05,14.35,14.35,0,0,1,2.09,8.07,17.92,17.92,0,0,1-1.56,7.47,16.27,16.27,0,0,1-4.63,5.94,22.22,22.22,0,0,1-7.63,3.9,36.31,36.31,0,0,1-10.53,1.39,37.07,37.07,0,0,1-9.39-1.19,23.4,23.4,0,0,1-8-3.73,18.3,18.3,0,0,1-5.53-6.48,19.23,19.23,0,0,1-2-9.35H210A10.78,10.78,0,0,0,211.1,171Z" transform="translate(-11.26 -28.56)"/><path class="cls-1" d="M249.23,137.69V126.87h48v10.82H279.65v47.73H266.78V137.69Z" transform="translate(-11.26 -28.56)"/></svg>